# xmcd CD database file
#
# Track frame offsets:
#	150
#	16745
#	30688
#	43311
#	57467
#	75175
#	94406
#	110074
#	130872
#	148635
#	163688
#	179778
#	195841
#	209634
#	227146
#	246344
#	269398
#	307121
#
# Disc length: 4461 seconds
#
# Revision: 5
# Processed by: cddbd v1.5.1PL2 Copyright (c) Steve Scherf et al.
# Submitted via: CDex 1.51
#
DISCID=09116b12
DTITLE=Various Artist - Promo Rhythm December 2005
DYEAR=2005
DGENRE=New Age
TTITLE0=DHT Feat. Edmee - Someone (Furious EZ Radio Edit)
TTITLE1=Supafly vs. Fishbowl - Let's Get Down (Full Intention Radio Edit)
TTITLE2=Deep Dish - Sacramento (Radio Edit)
TTITLE3=Jaybee Feat. Morris - Shattered Dreams (Radio Edit)
TTITLE4=Kelly Clarkson - Because Of You (Jason Nevins Radio)
TTITLE5=Nice Cream - You Really Got Me (Radio Edit)
TTITLE6=Tom Novy - Your Body (Original Radio)
TTITLE7=Danny D - Airbreak (Edit)
TTITLE8=Frankie J - More Than Words (Mynt Electro Edit)
TTITLE9=Bon Garcon - Freek U (Full Intention Radio Mix)
TTITLE10=Korn - Twisted Transistor (Kupper's Elektro-tek Radio Edit)
TTITLE11=Ricky Martin Feat. Amerie - I Don't Care (Norty Cotto Radio Edit)
TTITLE12=DJ Ricky and Lobo - Mamasita (Single)
TTITLE13=Mynt - Still Not Sorry (Al B Rich Radio Mix)
TTITLE14=Jamaster A - Bells Of Tiananmen (Jamaster A Radio Mix)
TTITLE15=Redhook - Paradise (Club Mix)
TTITLE16=PWA - Inside Myself (J.Beck Remix)
TTITLE17=Eurythmics - Sweet Dreams (Steve Angello Bootleg Mix)
EXTD=YEAR: 2005
EXTT0=
EXTT1=
EXTT2=
EXTT3=
EXTT4=
EXTT5=
EXTT6=
EXTT7=
EXTT8=
EXTT9=
EXTT10=
EXTT11=
EXTT12=
EXTT13=
EXTT14=
EXTT15=
EXTT16=
EXTT17=
PLAYORDER=
